<svg aria-hidden="true" style="position: absolute; width: 0; height: 0; overflow: hidden;" version="1.1" xmlns="http://www.w3.org/2000/svg" xmlns:xlink="http://www.w3.org/1999/xlink">
<defs>

<symbol id="icon-arrow-right" viewBox="0 0 32 32">
<path stroke-linejoin="round" stroke-linecap="round" stroke-miterlimit="4" d="M25.333 16h-20M20 9.333l5.724 5.724c0.444 0.444 0.667 0.667 0.667 0.943s-0.222 0.498-0.667 0.943l-5.724 5.724"></path>
</symbol>

<symbol id="icon-close" viewBox="0 0 32 32">
<path fill="none" stroke="#fff" style="stroke: var(--color1, #fff)" stroke-linejoin="round" stroke-linecap="round" stroke-miterlimit="4" stroke-width="2.6667" d="M23.543 8.458l-15.085 15.085M8.458 8.458l15.085 15.085"></path>
</symbol>

<symbol id="icon-dot" viewBox="0 0 32 32">
<path d="M16 13.333c-1.473 0-2.667 1.194-2.667 2.667s1.194 2.667 2.667 2.667c1.473 0 2.667-1.194 2.667-2.667s-1.194-2.667-2.667-2.667z"></path>
</symbol>

<symbol id="icon-email" viewBox="0 0 32 32">
<path d="M28 6h-24c-0.53 0-1.039 0.211-1.414 0.586s-0.586 0.884-0.586 1.414v16c0 0.53 0.211 1.039 0.586 1.414s0.884 0.586 1.414 0.586h24c0.53 0 1.039-0.211 1.414-0.586s0.586-0.884 0.586-1.414v-16c0-0.53-0.211-1.039-0.586-1.414s-0.884-0.586-1.414-0.586zM25.8 8l-9.8 6.78-9.8-6.78h19.6zM4 24v-15.090l11.43 7.91c0.167 0.116 0.366 0.178 0.57 0.178s0.403-0.062 0.57-0.178l11.43-7.91v15.090h-24z"></path>
</symbol>

<symbol id="icon-important" viewBox="0 0 32 32">
<path fill="none" stroke="#003cb6" style="stroke: var(--color2, #003cb6)" stroke-linejoin="round" stroke-linecap="round" stroke-miterlimit="4" stroke-width="1.3333" d="M16.444 15.667l4.445-2.5M16.444 15.667v5M16.444 15.667l-4.444-2.5M16.444 15.667l4.445 2.5M16.444 15.667v-5M16.444 15.667l-4.444 2.5"></path>
</symbol>

<symbol id="icon-language" viewBox="0 0 32 32">
<path fill="none" stroke="#fff" style="stroke: var(--color1, #fff)" stroke-linejoin="round" stroke-linecap="round" stroke-miterlimit="4" stroke-width="2" d="M4.8 12h22.4M4.8 20h22.4M15.333 4c-2.246 3.599-3.437 7.757-3.437 12s1.191 8.401 3.437 12M16.667 4c2.246 3.599 3.437 7.757 3.437 12s-1.191 8.401-3.437 12M4 16c0 1.576 0.31 3.136 0.913 4.592s1.487 2.779 2.601 3.893c1.114 1.114 2.437 1.998 3.893 2.601s3.016 0.913 4.592 0.913c1.576 0 3.136-0.31 4.592-0.913s2.779-1.487 3.893-2.601c1.114-1.114 1.998-2.437 2.601-3.893s0.913-3.016 0.913-4.592c0-3.183-1.264-6.235-3.515-8.485s-5.303-3.515-8.485-3.515c-3.183 0-6.235 1.264-8.485 3.515s-3.515 5.303-3.515 8.485z"></path>
</symbol>

<symbol id="icon-map_pin" viewBox="0 0 32 32">
<path stroke-linejoin="miter" stroke-linecap="butt" stroke-miterlimit="4" stroke-width="2.6667" d="M16 4c2.839 0 5.555 1.101 7.553 3.052 1.955 1.908 3.067 4.478 3.112 7.163s-0.981 5.288-2.871 7.257l-0.241 0.242-5.657 5.522c-0.476 0.465-1.122 0.741-1.807 0.763-0.683 0.022-1.343-0.21-1.85-0.641l-0.137-0.125-5.656-5.521c-1.996-1.95-3.112-4.587-3.112-7.329s1.116-5.381 3.113-7.331c1.998-1.951 4.714-3.052 7.553-3.052zM16 9.145c-0.696 0-1.387 0.134-2.031 0.395s-1.233 0.643-1.729 1.128c-0.497 0.485-0.892 1.063-1.163 1.701s-0.41 1.323-0.41 2.016 0.14 1.378 0.41 2.016c0.271 0.637 0.666 1.215 1.163 1.699s1.085 0.868 1.729 1.129c0.645 0.261 1.335 0.395 2.031 0.395 1.404 0 2.757-0.545 3.759-1.523 1.004-0.98 1.574-2.315 1.574-3.715s-0.571-2.736-1.574-3.716c-1.002-0.978-2.355-1.522-3.759-1.522z"></path>
</symbol>

<symbol id="icon-menu" viewBox="0 0 32 32">
<path fill="none" stroke="#fff" style="stroke: var(--color1, #fff)" stroke-linejoin="round" stroke-linecap="round" stroke-miterlimit="4" stroke-width="1.2" d="M5.6 19.2h21.333"></path>
<path fill="none" stroke="#fff" style="stroke: var(--color1, #fff)" stroke-linejoin="round" stroke-linecap="round" stroke-miterlimit="4" stroke-width="1.2" d="M5.6 25.6h21.333"></path>
<path fill="#fff" style="fill: var(--color1, #fff)" d="M24.649 12.28c-0.44 0-0.829-0.091-1.168-0.272-0.336-0.181-0.6-0.437-0.792-0.768s-0.288-0.717-0.288-1.16v-3.676l0.592-0.004v3.604c0 0.299 0.051 0.557 0.152 0.776 0.101 0.216 0.233 0.395 0.396 0.536 0.165 0.139 0.345 0.241 0.54 0.308s0.384 0.1 0.568 0.1c0.187 0 0.377-0.033 0.572-0.1s0.373-0.169 0.536-0.308c0.163-0.141 0.295-0.32 0.396-0.536 0.101-0.219 0.152-0.477 0.152-0.776v-3.604h0.592v3.68c0 0.443-0.096 0.829-0.288 1.16-0.192 0.328-0.457 0.584-0.796 0.768-0.336 0.181-0.724 0.272-1.164 0.272z"></path>
<path fill="#fff" style="fill: var(--color1, #fff)" d="M16.925 12.16v-5.76h0.592l3.172 4.72v-4.72h0.592v5.76h-0.592l-3.172-4.724v4.724h-0.592z"></path>
<path fill="#fff" style="fill: var(--color1, #fff)" d="M12.362 12.16v-5.76h3.6v0.564h-3.012v1.992h2.532v0.564h-2.532v2.076h3.012v0.564h-3.6z"></path>
<path fill="#fff" style="fill: var(--color1, #fff)" d="M5.636 12.16v-5.76h0.54l2.264 4.844 2.252-4.844h0.548v5.756h-0.56v-4.444l-2.052 4.448h-0.38l-2.048-4.448v4.448h-0.564z"></path>
</symbol>

<symbol id="icon-phone" viewBox="0 0 32 32">
<path stroke-linejoin="round" stroke-linecap="round" stroke-miterlimit="4" stroke-width="2" d="M24.157 19.603l-5.491 1.064c-3.709-1.862-6-4-7.333-7.333l1.027-5.507-1.941-5.16h-5.001c-1.503 0-2.687 1.242-2.463 2.729 0.561 3.711 2.213 10.44 7.045 15.271 5.074 5.074 12.381 7.275 16.403 8.15 1.553 0.338 2.931-0.874 2.931-2.463v-4.779l-5.176-1.972z"></path>
</symbol>

<symbol id="icon-plus" viewBox="0 0 32 32">
<path fill="none" stroke="#fff" style="stroke: var(--color1, #fff)" stroke-linejoin="round" stroke-linecap="round" stroke-miterlimit="4" stroke-width="2.6667" d="M16 5.333v21.333M5.333 16h21.333"></path>
</symbol>

<symbol id="icon-schevron_right" viewBox="0 0 32 32">
<path stroke-linejoin="round" stroke-linecap="round" stroke-miterlimit="4" stroke-width="1" d="M12 24l8-8-8-8"></path>
</symbol>

<symbol id="icon-viber" viewBox="0 0 32 32">
<path d="M24.111 6.337c-0.593-0.548-2.992-2.297-8.342-2.32 0 0-6.307-0.38-9.378 2.451-1.708 1.715-2.311 4.232-2.376 7.349s-0.145 8.957 5.462 10.541h0.005l-0.005 2.419c0 0-0.037 0.979 0.607 1.176 0.775 0.244 1.232-0.502 1.975-1.303 0.406-0.441 0.966-1.087 1.391-1.58 3.837 0.323 6.783-0.417 7.119-0.525 0.775-0.253 5.158-0.815 5.868-6.655 0.738-6.027-0.355-9.833-2.325-11.553zM24.759 17.45c-0.602 4.874-4.155 5.184-4.808 5.395-0.28 0.089-2.871 0.736-6.125 0.525 0 0-2.427 2.939-3.184 3.703-0.247 0.248-0.518 0.225-0.514-0.267 0-0.323 0.019-4.017 0.019-4.017-0.005 0-0.005 0 0 0-4.752-1.322-4.472-6.294-4.421-8.896s0.542-4.734 1.989-6.168c2.6-2.367 7.954-2.015 7.954-2.015 4.523 0.019 6.689 1.387 7.193 1.847 1.667 1.434 2.516 4.865 1.895 9.894zM18.271 13.663c0.019 0.403-0.584 0.431-0.602 0.028-0.051-1.031-0.532-1.533-1.522-1.589-0.401-0.023-0.364-0.628 0.033-0.605 1.302 0.070 2.026 0.82 2.091 2.165zM19.218 14.192c0.047-1.987-1.19-3.543-3.538-3.717-0.397-0.028-0.355-0.633 0.042-0.605 2.707 0.197 4.15 2.067 4.099 4.335-0.005 0.403-0.611 0.384-0.602-0.014zM21.412 14.82c0.005 0.403-0.602 0.408-0.602 0.005-0.028-3.82-2.563-5.901-5.639-5.924-0.397-0.005-0.397-0.605 0-0.605 3.44 0.023 6.209 2.409 6.241 6.524zM20.885 19.418v0.009c-0.504 0.89-1.447 1.875-2.418 1.561l-0.009-0.014c-0.985-0.277-3.305-1.476-4.771-2.648-0.756-0.6-1.447-1.308-1.979-1.987-0.481-0.605-0.966-1.322-1.438-2.184-0.994-1.804-1.214-2.611-1.214-2.611-0.313-0.975 0.663-1.922 1.554-2.428h0.009c0.429-0.225 0.84-0.15 1.116 0.183 0 0 0.579 0.694 0.826 1.036 0.233 0.319 0.546 0.83 0.71 1.116 0.285 0.511 0.107 1.031-0.173 1.247l-0.56 0.45c-0.285 0.23-0.247 0.656-0.247 0.656s0.831 3.154 3.935 3.951c0 0 0.425 0.038 0.654-0.248l0.448-0.562c0.215-0.281 0.733-0.459 1.242-0.173 0.686 0.389 1.559 0.994 2.138 1.542 0.327 0.267 0.401 0.675 0.177 1.106z"></path>
</symbol>

<symbol id="icon-whatsapp" viewBox="0 0 32 32">
<path d="M28 15.691c0 6.457-5.275 11.691-11.783 11.691-2.065 0-4.005-0.528-5.694-1.453l-6.523 2.072 2.126-6.274c-1.072-1.761-1.69-3.828-1.69-6.035 0.001-6.457 5.274-11.691 11.782-11.691 6.507 0.002 11.781 5.235 11.781 11.691zM16.216 5.864c-5.462 0-9.905 4.409-9.905 9.829 0 2.151 0.701 4.141 1.887 5.761l-1.236 3.649 3.805-1.209c1.565 1.027 3.438 1.625 5.449 1.625 5.462 0 9.906-4.408 9.906-9.829 0.002-5.418-4.444-9.827-9.906-9.827zM22.167 18.384c-0.074-0.118-0.266-0.19-0.554-0.334s-1.709-0.837-1.973-0.931c-0.266-0.096-0.459-0.145-0.651 0.143-0.19 0.287-0.744 0.932-0.914 1.125-0.168 0.192-0.337 0.216-0.625 0.074-0.289-0.146-1.22-0.446-2.323-1.422-0.859-0.761-1.438-1.697-1.606-1.985-0.17-0.287-0.017-0.441 0.126-0.584 0.129-0.129 0.289-0.335 0.434-0.503 0.145-0.167 0.193-0.285 0.289-0.477 0.095-0.192 0.047-0.358-0.024-0.503s-0.649-1.553-0.891-2.126c-0.24-0.573-0.481-0.478-0.65-0.478s-0.361-0.023-0.553-0.023-0.506 0.070-0.769 0.357c-0.264 0.287-1.010 0.98-1.010 2.39 0 1.412 1.034 2.773 1.179 2.964s1.999 3.179 4.934 4.326c2.937 1.147 2.937 0.764 3.466 0.715 0.531-0.049 1.709-0.693 1.949-1.361 0.241-0.671 0.241-1.247 0.168-1.367z"></path>
</symbol>

</defs>
</svg>
